<?xml version="1.0" encoding="utf-8"?>
<!-- Generator: Adobe Illustrator 26.0.1, SVG Export Plug-In . SVG Version: 6.00 Build 0)  -->
<svg version="1.1" id="Calque_1" xmlns="http://www.w3.org/2000/svg" xmlns:xlink="http://www.w3.org/1999/xlink" x="0px" y="0px"
	 viewBox="0 0 100 125" style="enable-background:new 0 0 100 125;" xml:space="preserve">
<path d="M91,38.3h-7.8v-8.4c0-1.4-1.1-2.5-2.5-2.5H9l0,0c-1.4,0-2.5,1.1-2.5,2.5v40.3c0,1.4,1.1,2.5,2.5,2.5h71.7
	c1.4,0,2.5-1.1,2.5-2.5v-8.4H91c1.4,0,2.5-1.1,2.5-2.5V40.8C93.5,39.4,92.4,38.3,91,38.3z M78.2,67.6H11.5V32.4h66.7V67.6z
	 M88.5,56.7h-5.3V43.3h5.3V56.7z"/>
<path d="M55.5,52.5C55.5,52.5,55.5,52.5,55.5,52.5h4.1v4.3c0,1.4,1.1,2.5,2.5,2.5c1.4,0,2.5-1.1,2.5-2.5c0,0,0-0.1,0-0.1v-4.3h3.8
	c1.4,0,2.5-1.1,2.5-2.5c0-1.4-1.1-2.5-2.5-2.5c0,0-0.1,0-0.1,0h-3.8v-4.3c0-1.4-1.1-2.5-2.5-2.5c0,0,0,0-0.1,0
	c-1.4,0-2.5,1.2-2.5,2.5v4.3h-4c-1.4,0-2.5,1.1-2.5,2.5C53,51.3,54.1,52.5,55.5,52.5z"/>
<path d="M18.7,52.5C18.7,52.5,18.7,52.5,18.7,52.5h16.1c1.4,0,2.5-1.1,2.5-2.5c0-1.4-1.1-2.5-2.5-2.5c0,0-0.1,0-0.1,0h-16
	c-1.4,0-2.5,1.1-2.5,2.5C16.2,51.3,17.3,52.5,18.7,52.5z"/>
</svg>
